<svg width="15" height="16" viewBox="0 0 15 16" fill="none" xmlns="http://www.w3.org/2000/svg">
<path d="M14.6967 1.77026L8.49274 15.3061C8.44082 15.4195 8.3528 15.5124 8.24242 15.5705C8.13205 15.6285 8.00555 15.6483 7.88272 15.6269C7.75988 15.6054 7.64764 15.5438 7.56353 15.4517C7.47942 15.3596 7.4282 15.2423 7.41788 15.118L6.89337 8.8257L0.601072 8.30118C0.476798 8.29086 0.359449 8.23964 0.267379 8.15553C0.175309 8.07143 0.113709 7.95918 0.0922135 7.83634C0.0707182 7.71351 0.0905395 7.58701 0.148577 7.47664C0.206615 7.36626 0.299597 7.27824 0.412981 7.22633L13.9488 1.02241C14.0534 0.974453 14.1702 0.959663 14.2835 0.980026C14.3968 1.00039 14.5012 1.05493 14.5826 1.13632C14.664 1.21771 14.7185 1.32206 14.7389 1.43535C14.7592 1.54864 14.7444 1.66545 14.6965 1.77009L14.6967 1.77026Z" fill="#080809"/>
</svg>
